<svg width="15" height="11" viewBox="0 0 15 11" fill="none" xmlns="http://www.w3.org/2000/svg">
<path d="M1 5.5C1 5.5 3.36364 1 7.5 1C11.6364 1 14 5.5 14 5.5C14 5.5 11.6364 10 7.5 10C3.36364 10 1 5.5 1 5.5Z" stroke="#60676B" stroke-width="0.6" stroke-linecap="round" stroke-linejoin="round"/>
<path d="M1 5.5C1 5.5 3.36364 1 7.5 1C11.6364 1 14 5.5 14 5.5C14 5.5 11.6364 10 7.5 10C3.36364 10 1 5.5 1 5.5Z" stroke="#60676B" stroke-width="0.6" stroke-linecap="round" stroke-linejoin="round"/>
<path d="M7.5 7C8.32843 7 9 6.32843 9 5.5C9 4.67157 8.32843 4 7.5 4C6.67157 4 6 4.67157 6 5.5C6 6.32843 6.67157 7 7.5 7Z" stroke="#60676B" stroke-width="0.6" stroke-linecap="round" stroke-linejoin="round"/>
</svg>
