<svg xmlns="http://www.w3.org/2000/svg" viewBox="0 0 48 48">
  <path fill="#FFC107" d="M43.6 20H24v8h11.3C33.7 33.6 29.4 37 24 37c-7.2 0-13-5.8-13-13s5.8-13 13-13c3.1 0 5.9 1.1 8.1 2.9l5.7-5.7C34.5 5.1 29.5 3 24 3 12.4 3 3 12.4 3 24s9.4 21 21 21c10.9 0 20-7.9 20-21 0-1.3-.2-2.7-.4-4z"/>
  <path fill="#FF3D00" d="m6.3 14.7 6.6 4.8C14.7 15.1 19 12 24 12c3.1 0 5.9 1.1 8.1 2.9l5.7-5.7C34.5 5.1 29.5 3 24 3c-7.7 0-14.4 4.4-17.7 11.7z"/>
  <path fill="#4CAF50" d="M24 45c5.2 0 10-1.9 13.7-5.1l-6.3-5.3C29.4 36.1 26.8 37 24 37c-5.4 0-9.7-3.4-11.3-8H6.2l-6.5 4.8C3.5 40.8 13.3 45 24 45z"/>
  <path fill="#1976D2" d="M43.6 20H24v8h11.3c-.9 2.4-2.5 4.5-4.6 6l6.3 5.3C41 35.6 44 30.2 44 24c0-1.3-.2-2.7-.4-4z"/>
</svg>
