<svg width="56" height="42" viewBox="0 0 56 42" fill="none" xmlns="http://www.w3.org/2000/svg">
<path d="M5.44601 38.0209C5.20617 38.2305 4.96069 38.4357 4.70799 38.6341C4.28723 38.9641 3.84905 39.2796 3.37268 39.5591C3.21453 39.6511 3.05226 39.7395 2.88281 39.8202C3.46706 39.5066 4.28063 38.9515 5.44601 38.0209Z" fill="#8CC7EC"/>
<path d="M5.56557 38.1536L5.55894 38.1591C5.30344 38.3826 5.06173 38.5833 4.82029 38.7727C4.3254 39.1612 3.89474 39.4593 3.46503 39.7116C3.2923 39.8118 3.13665 39.8956 2.98915 39.9663C2.97972 39.971 2.97045 39.9752 2.96137 39.9797L2.87905 39.822L2.79642 39.6641C2.80101 39.662 2.80523 39.6594 2.80996 39.6569H2.81027C2.88421 39.6169 2.96106 39.5737 3.04097 39.5266C3.08323 39.5017 3.12658 39.4759 3.1704 39.4491C3.21438 39.4222 3.25881 39.3946 3.30467 39.3655C3.32449 39.3533 3.34443 39.3408 3.36437 39.3278C3.69275 39.1174 4.06375 38.8572 4.48104 38.5439C4.56853 38.4782 4.65837 38.41 4.75009 38.3394C4.93369 38.1984 5.1253 38.0481 5.32605 37.8881L5.33245 37.883L5.44888 38.0181L5.56557 38.1536Z" fill="currentColor"/>
<path d="M13.1535 26.32C12.7015 26.9181 12.2496 27.5201 11.8091 28.1066L11.4334 28.6082C10.911 29.3064 10.3706 30.0287 9.83643 30.7364C9.24839 31.5152 8.61464 32.3498 7.96299 33.1759C7.19341 34.1503 6.593 34.8827 6.01596 35.5507C5.65503 35.9694 5.32237 36.3434 4.99928 36.6938C4.64829 37.0738 4.29599 37.4442 3.9514 37.7943C3.52435 38.2275 3.18871 38.5465 2.86295 38.8291C2.65094 39.0117 2.46248 39.1607 2.28623 39.2845C2.07702 39.4316 1.88702 39.5391 1.72051 39.6047L1.70545 39.62L1.6624 39.6262L1.6511 39.6302H1.63494C1.57162 39.6424 1.51994 39.6862 1.49892 39.7471C1.46718 39.8393 1.51757 39.9406 1.6117 39.9723C1.67291 39.9925 1.73746 40.0024 1.80928 40.0024C2.04533 40.0024 2.36134 39.8954 2.77454 39.6761L2.78664 39.6645L2.80988 39.6568C2.80534 39.6594 2.80107 39.6621 2.79652 39.6642L2.87916 39.822L2.9613 39.9797C2.97056 39.9752 2.97969 39.9711 2.98925 39.9661L2.97969 39.9758L2.95341 39.9843C2.47629 40.2388 2.11255 40.3572 1.80928 40.3572C1.69788 40.3572 1.59536 40.3413 1.49593 40.308C1.21355 40.2136 1.06182 39.9108 1.15745 39.633C1.21603 39.4636 1.3541 39.3371 1.52577 39.291L1.54086 39.2756H1.58542C1.72509 39.221 1.89031 39.1271 2.0764 38.9959C2.24322 38.8787 2.4226 38.7372 2.62503 38.5626C2.9434 38.2868 3.27272 37.9736 3.69286 37.5471C4.03434 37.2001 4.38409 36.8327 4.73212 36.4555C5.05271 36.1078 5.38269 35.7365 5.74123 35.3208C6.31482 34.6568 6.9123 33.9281 7.67828 32.9581C8.3277 32.1344 8.96003 31.302 9.54695 30.5249C10.0809 29.8178 10.6208 29.0958 11.1432 28.3973L11.519 27.8954C12.0155 27.2342 12.5272 26.5533 13.0362 25.8804L13.1535 26.32Z" fill="currentColor"/>
<path d="M55.5526 2.83512C55.5507 2.71484 55.5369 2.60385 55.5113 2.49671C55.4802 2.36656 55.4326 2.24567 55.3692 2.13729C55.296 2.01443 55.202 1.90484 55.0975 1.82058C54.9935 1.7363 54.8732 1.66707 54.7494 1.62006C54.5491 1.54354 54.3384 1.51002 54.0857 1.51296C53.908 1.5162 53.7277 1.53828 53.5171 1.58341C53.2087 1.65161 52.8972 1.75642 52.5361 1.91347C52.2583 2.0345 51.9704 2.17998 51.6567 2.35776C51.4179 2.49394 51.1757 2.64267 50.9269 2.80541H44.241C44.2979 2.72255 44.3543 2.64188 44.4097 2.5638C44.4743 2.47291 44.5429 2.38063 44.615 2.28773C44.6304 2.26701 44.6464 2.24738 44.6615 2.22866L44.7089 2.17257C44.7149 2.16543 44.7201 2.15943 44.7251 2.1543C44.7834 2.14133 44.8394 2.11907 44.8902 2.08848C45.1443 1.93481 45.2245 1.60646 45.0689 1.35635C44.9462 1.15972 44.746 1.03572 44.5044 1.00714C44.1 0.959377 43.4612 1.10806 41.3525 2.80541H40.8082C40.7154 2.80541 40.6399 2.87934 40.6399 2.9707V3.39133C39.7092 4.17119 38.5439 5.19938 37.0745 6.55091C36.3309 7.23494 35.5495 7.96458 34.7354 8.73256C34.7033 8.56408 34.6778 8.39063 34.6593 8.21487C34.6299 7.93894 34.6148 7.63132 34.6148 7.30001C34.6148 6.68166 34.7819 6.25193 35.1255 5.98651C35.4796 5.71382 36.1044 5.55397 36.9824 5.51084C37.0715 5.50638 37.1419 5.43385 37.1419 5.34573V2.9707C37.1419 2.87934 37.0665 2.80541 36.9739 2.80541H32.3485C32.4815 2.64635 32.6048 2.50814 32.7224 2.3848C32.8066 2.29732 32.8866 2.22095 32.961 2.1568C32.9963 2.12617 33.0331 2.09698 33.0672 2.07253C33.0868 2.05833 33.1071 2.04642 33.1223 2.03743C33.1314 2.03204 33.1389 2.02709 33.1452 2.02323L33.2415 1.95878C33.4215 1.83806 33.509 1.61711 33.4598 1.40858C33.394 1.1277 33.1079 0.951936 32.8217 1.0167C32.6863 1.04763 32.5894 1.09167 32.5077 1.13129C32.4369 1.16652 32.3657 1.20657 32.2845 1.25802C32.1407 1.34907 32.0191 1.44228 31.9187 1.52159C31.6786 1.71189 31.4685 1.90606 31.2948 2.071C31.122 2.23515 30.9411 2.41648 30.7254 2.64158C30.672 2.69767 30.6202 2.75227 30.5701 2.80541H23.0785C22.9858 2.80541 22.9108 2.87934 22.9108 2.9707V5.34573C22.9108 5.43709 22.9858 5.51084 23.0785 5.51084H23.4394C23.9153 5.51084 24.3288 5.57811 24.6687 5.71027C24.8267 5.77162 24.972 5.848 25.1035 5.93844C24.7172 6.39386 24.3187 6.77815 23.9166 7.08252C23.4416 7.44272 22.9406 7.7038 22.4258 7.8598C22.3037 7.89749 22.1763 7.92904 22.035 7.95748C21.9095 7.9836 21.7798 8.00353 21.6368 8.01869C21.5093 8.03294 21.3763 8.04095 21.2304 8.04359C21.0973 8.04683 20.9577 8.04359 20.8135 8.03429C20.676 8.02644 20.5337 8.01251 20.3901 7.99227C20.2451 7.97295 20.1003 7.94836 19.9597 7.91944C19.8394 7.89412 19.6808 7.86011 19.5228 7.81773C19.3623 7.77414 19.2177 7.73163 19.0815 7.68803C18.5318 7.51056 17.9569 7.26201 17.3263 6.92872C17.3022 6.9154 17.2778 6.90261 17.2536 6.88959C17.2054 6.86378 17.1575 6.83797 17.1087 6.81027L16.9205 6.7052C17.0334 6.48474 17.1959 6.28996 17.4096 6.11806C17.6014 5.96346 17.8209 5.8384 18.0622 5.7455C18.4181 5.60729 18.8402 5.52846 19.3168 5.51084C19.4066 5.50773 19.4776 5.43569 19.4787 5.34744L19.5013 2.97237C19.5019 2.92803 19.4842 2.88583 19.4528 2.85458C19.4212 2.82321 19.3784 2.80541 19.3334 2.80541H4.22021C4.1753 2.80541 4.13242 2.82321 4.10098 2.85458C4.06942 2.88583 4.05184 2.92803 4.05245 2.97237L4.07508 5.34744C4.07601 5.43649 4.1484 5.50913 4.23923 5.51084C4.68622 5.52136 5.10053 5.57549 5.48108 5.67254C5.26872 5.79913 5.04946 5.94028 4.81795 6.09965C4.76097 6.13878 4.70536 6.17883 4.65117 6.21743C4.62633 6.23509 4.60109 6.25315 4.57419 6.27248C4.51124 6.3184 4.44967 6.36415 4.38748 6.41068L4.33627 6.44841C4.18847 6.56032 4.01474 6.6945 3.85016 6.83967C3.68084 6.98639 3.52568 7.13879 3.39658 7.2685L3.3944 7.27095C3.25932 7.41227 3.11543 7.56608 2.97942 7.73163C2.72342 8.03649 2.48359 8.37455 2.26623 8.73751C2.0581 9.08903 1.87592 9.45278 1.7242 9.81841C1.64914 9.99908 1.57861 10.1874 1.51517 10.3782C1.45186 10.5666 1.39408 10.7572 1.34461 10.9436C1.24783 11.2984 1.17121 11.6726 1.11056 12.0883C1.08279 12.2822 1.06017 12.4751 1.04303 12.6615C1.02638 12.85 1.01462 13.0429 1.00804 13.2341C0.993253 13.6039 0.998909 13.9877 1.02433 14.3751C1.03662 14.5588 1.05389 14.7446 1.0782 14.9429C1.08826 15.0287 1.10179 15.122 1.11889 15.2298L1.14275 15.3725L1.1709 15.5203C1.21943 15.7712 1.44261 15.9525 1.70252 15.9525H1.70456C2.00268 15.9515 2.24425 15.7114 2.24331 15.4163L2.24265 15.2768L2.24425 15.151C2.2463 15.0667 2.2499 14.98 2.25351 14.8961C2.25929 14.75 2.27047 14.5933 2.28886 14.3881C2.31806 14.0678 2.36423 13.7288 2.42656 13.381C2.45706 13.2133 2.49142 13.0471 2.52944 12.8865C2.56778 12.7191 2.60909 12.5555 2.65259 12.4017C2.74368 12.0809 2.85129 11.7654 2.97189 11.4641C3.09077 11.1664 3.23073 10.8716 3.38874 10.587C3.53731 10.3152 3.71023 10.0464 3.90167 9.78962C4.29558 9.2693 4.73834 8.83229 5.2202 8.48865C5.35322 8.39063 5.49347 8.29958 5.60107 8.23126C5.76816 8.1303 5.90386 8.05164 6.02811 7.9839C6.31648 7.82545 6.61018 7.68124 6.90028 7.55587C7.17355 7.43699 7.44855 7.33602 7.72418 7.25395C8.1839 7.93845 8.56589 8.86678 8.86302 10.028L12.5339 23.8129L13.0044 25.5798L13.1217 26.0193C13.2483 25.8515 13.375 25.684 13.5016 25.5171C14.3262 24.4276 15.174 23.3252 15.994 22.259C16.4129 21.7146 16.8318 21.17 17.2497 20.6246L19.1237 18.1736L19.3469 17.8807L20.9954 15.7194L24.7416 10.8071L25.6793 9.57942L26.3888 8.65373L26.6202 8.35181C26.8027 8.11286 26.9899 7.86996 27.1708 7.63549C27.3015 7.46621 27.4323 7.29646 27.5621 7.12718L28.9789 5.2907L29.9717 4.01585L30.1946 3.75583C30.2984 3.63711 30.3786 3.54606 30.4551 3.46104C30.6144 3.28187 30.789 3.09357 30.9883 2.88473C31.0142 2.8577 31.0397 2.83123 31.0644 2.80541H31.2429C31.0644 2.80541 31.5451 2.32652 31.7133 2.16714C31.9159 1.97977 32.1449 1.798 32.3739 1.61614L32.4791 1.55638C32.5508 1.51155 32.6094 1.47816 32.6684 1.44894C32.7336 1.41739 32.8053 1.38478 32.9034 1.36239C32.9951 1.34166 33.0874 1.39806 33.1088 1.48868C33.1245 1.55577 33.0964 1.62671 33.0386 1.66519L32.9442 1.72842C32.9167 1.74481 32.8866 1.7629 32.8548 1.78577C32.8122 1.81641 32.7667 1.85255 32.7231 1.89042C32.6407 1.9614 32.5526 2.04532 32.4606 2.14133C32.3062 2.30254 32.1446 2.48715 31.9652 2.70621C31.9389 2.73912 31.9118 2.77202 31.885 2.80541H40.8947L40.313 20.3568L38.585 25.3036L37.7975 21.9188L37.0833 18.8478C37.8388 17.9362 38.5936 17.0339 39.329 16.1634C40.1946 15.1382 40.9773 14.2226 41.7225 13.3635C42.3332 12.6597 42.9018 12.0106 43.4405 11.404L40.8947 18.6923Z" fill="currentColor"/>
</svg>
