<svg width="56" height="42" viewBox="0 0 56 42" fill="none" xmlns="http://www.w3.org/2000/svg">
<path d="M5.44601 38.0209C5.20617 38.2305 4.96069 38.4357 4.70799 38.6341C4.28723 38.9641 3.84905 39.2796 3.37268 39.5591C3.21453 39.6511 3.05226 39.7395 2.88281 39.8202C3.46706 39.5066 4.28063 38.9515 5.44601 38.0209Z" fill="#8CC7EC"/>
<path d="M5.56557 38.1536L5.55894 38.1591C5.30344 38.3826 5.06173 38.5833 4.82029 38.7727C4.3254 39.1612 3.89474 39.4593 3.46503 39.7116C3.2923 39.8118 3.13665 39.8956 2.98915 39.9663C2.97972 39.971 2.97045 39.9752 2.96137 39.9797L2.87905 39.822L2.79642 39.6641C2.80101 39.662 2.80523 39.6594 2.80996 39.6569H2.81027C2.88421 39.6169 2.96106 39.5737 3.04097 39.5266C3.08323 39.5017 3.12658 39.4759 3.1704 39.4491C3.21438 39.4222 3.25881 39.3946 3.30467 39.3655C3.32449 39.3533 3.34443 39.3408 3.36437 39.3278C3.69275 39.1174 4.06375 38.8572 4.48104 38.5439C4.56853 38.4782 4.65837 38.41 4.75009 38.3394C4.93369 38.1984 5.1253 38.0481 5.32605 37.8881L5.33245 37.883L5.44888 38.0181L5.56557 38.1536Z" fill="#60676B"/>
<path d="M5.44894 38.0181L5.44797 38.0191C5.44721 38.0198 5.44659 38.0201 5.44596 38.0207C4.28053 38.9514 3.46701 39.5065 2.88272 39.82C2.8824 39.8203 2.88165 39.8203 2.8813 39.8206C2.88067 39.8211 2.87974 39.8217 2.87911 39.822L2.79648 39.6642C2.80107 39.662 2.80529 39.6594 2.80984 39.6569H2.81015C2.88428 39.6169 2.96094 39.5737 3.0409 39.5266C3.08315 39.5017 3.12648 39.4759 3.17046 39.4491C3.21426 39.4222 3.25887 39.3946 3.30473 39.3655C3.32455 39.3533 3.34448 39.3408 3.36443 39.3278C3.69281 39.1174 4.06381 38.8572 4.4811 38.5439C4.56859 38.4782 4.65843 38.41 4.75014 38.3394C4.93362 38.1984 5.12536 38.0481 5.32593 37.8881L5.33252 37.883L5.44894 38.0181Z" fill="#8CC7EC"/>
<path d="M5.44894 38.0181L5.33252 37.883L5.32593 37.8881C5.12536 38.0481 4.93362 38.1984 4.75014 38.3394C4.65843 38.41 4.56859 38.4782 4.4811 38.5439C4.06381 38.8572 3.69281 39.1174 3.36443 39.3278C3.34448 39.3408 3.32455 39.3533 3.30473 39.3655C3.25887 39.3946 3.21426 39.4222 3.17046 39.4491C3.12647 39.4762 3.08315 39.502 3.0409 39.5266C2.96094 39.5737 2.88428 39.6169 2.81015 39.6569H2.80984C2.80529 39.6594 2.80107 39.662 2.79648 39.6641L2.87911 39.822L2.96143 39.9797C2.97051 39.9752 2.97964 39.971 2.98921 39.9663L2.99171 39.9636C3.63459 39.6156 4.47452 39.025 5.55905 38.1591L5.56563 38.1536L5.44894 38.0181Z" fill="#60676B"/>
<path d="M13.1535 26.32C12.7015 26.9181 12.2496 27.5201 11.8091 28.1066L11.4334 28.6082C10.911 29.3064 10.3706 30.0287 9.83643 30.7364C9.24839 31.5152 8.61464 32.3498 7.96299 33.1759C7.19341 34.1503 6.593 34.8827 6.01596 35.5507C5.65503 35.9694 5.32237 36.3434 4.99928 36.6938C4.64829 37.0738 4.29599 37.4442 3.9514 37.7943C3.52435 38.2275 3.18871 38.5465 2.86295 38.8291C2.65094 39.0117 2.46248 39.1607 2.28623 39.2845C2.07702 39.4316 1.88702 39.5391 1.72051 39.6047L1.70545 39.62L1.6624 39.6262L1.6511 39.6302H1.63494C1.57162 39.6424 1.51994 39.6862 1.49892 39.7471C1.46718 39.8393 1.51757 39.9406 1.6117 39.9723C1.67291 39.9925 1.73746 40.0024 1.80928 40.0024C2.04533 40.0024 2.36134 39.8954 2.77454 39.6761L2.78664 39.6645L2.80988 39.6568C2.80534 39.6594 2.80107 39.6621 2.79652 39.6642L2.87916 39.822L2.9613 39.9797C2.97056 39.9752 2.97969 39.9711 2.98925 39.9661L2.97969 39.9758L2.95341 39.9843C2.47629 40.2388 2.11255 40.3572 1.80928 40.3572C1.69788 40.3572 1.59536 40.3413 1.49593 40.308C1.21355 40.2136 1.06182 39.9108 1.15745 39.633C1.21603 39.4636 1.3541 39.3371 1.52577 39.291L1.54086 39.2756H1.58542C1.72509 39.221 1.89031 39.1271 2.0764 38.9959C2.24322 38.8787 2.4226 38.7372 2.62503 38.5626C2.9434 38.2868 3.27272 37.9736 3.69286 37.5471C4.03434 37.2001 4.38409 36.8327 4.73212 36.4555C5.05271 36.1078 5.38269 35.7365 5.74123 35.3208C6.31482 34.6568 6.9123 33.9281 7.67828 32.9581C8.3277 32.1344 8.96003 31.302 9.54695 30.5249C10.0809 29.8178 10.6208 29.0958 11.1432 28.3973L11.519 27.8954C12.0155 27.2342 12.5272 26.5533 13.0362 25.8804L13.1535 26.32Z" fill="#60676B"/>
<path d="M40.8947 18.6923L40.313 20.3568L38.585 25.3036L37.7975 21.9188L37.0833 18.8478C37.8388 17.9362 38.5936 17.0339 39.329 16.1634C40.1946 15.1382 40.9773 14.2226 41.7225 13.3635C42.3332 12.6597 42.9018 12.0106 43.4405 11.404L40.8947 18.6923ZM22.5871 21.9862L21.3832 25.5452L21.0086 24.1358L20.8794 23.6491C21.4471 23.0967 22.0171 22.5419 22.5871 21.9862ZM26.0483 20.7115L27.1553 17.5285C27.5464 17.1475 27.9343 16.7692 28.3199 16.3939L29.3086 20.2588L27.7584 22.4319L26.9046 23.6342L26.0538 24.8391C25.5537 25.551 24.9624 26.3948 24.3656 27.2555C24.0706 27.6801 23.7636 28.1237 23.428 28.6101L26.0483 20.7115ZM37.786 7.3529C38.8727 6.35258 39.8193 5.50511 40.6399 4.79668C40.9274 4.54839 41.1991 4.31746 41.4565 4.10318C41.31 4.27912 41.1604 4.46014 41.0139 4.64067C40.8821 4.80254 40.7587 4.95385 40.6399 5.10026C40.4453 5.34004 40.2638 5.5654 40.0796 5.79778L39.6181 6.3787C39.4332 6.61133 39.2916 6.79174 39.1589 6.96255L38.2481 8.13249C37.6324 8.93155 37.0279 9.72412 36.4521 10.4885C36.1228 10.9259 35.7892 11.3711 35.4499 11.8255L35.4042 11.6293L35.228 10.8753L35.0124 9.94654C35.9828 9.0272 36.9103 8.15861 37.786 7.3529ZM44.1082 9.05844C43.1417 10.1146 42.1008 11.2874 40.8996 12.6726C40.1416 13.5469 39.3557 14.4659 38.4972 15.4826C37.941 16.141 37.3653 16.8281 36.7778 17.5333L36.2299 15.179C36.9525 14.0891 37.6841 12.9749 38.4287 11.83C39.018 10.9229 39.5942 10.028 40.0307 9.34937L41.6183 6.86299C41.7953 6.58583 41.972 6.3085 42.1487 6.03103C42.2277 5.90676 42.3073 5.78183 42.3876 5.65616C42.4724 5.67486 42.5543 5.69511 42.6327 5.71737C42.634 5.71768 42.6351 5.71799 42.6363 5.71829C42.6891 5.73222 42.7441 5.74892 42.8019 5.76898C43.0577 5.85356 43.28 5.96193 43.4618 6.09084C43.5442 6.1493 43.6225 6.21577 43.6943 6.28843C44.0623 6.66036 44.2487 7.20264 44.2487 7.89937C44.2487 8.19463 44.2016 8.58357 44.1082 9.05844ZM29.146 26.9127L26.8461 29.7934L26.5581 30.1488L26.417 30.3201C26.4009 30.3394 26.3829 30.3603 26.3645 30.3816L26.2698 30.492C26.0381 30.7623 25.8476 30.9834 25.67 31.1874C25.2656 31.652 24.8552 32.113 24.4512 32.5571C23.5558 33.5401 22.7256 34.403 21.9131 35.1953C21.5714 35.5284 21.2491 35.8334 20.9372 36.1183L21.0493 35.7807C21.6667 35.0888 22.2982 34.3537 22.9789 33.5339C23.5764 32.8153 24.188 32.0578 24.849 31.2178C25.4603 30.4411 26.0699 29.6495 26.6609 28.865C27.2029 28.1472 27.7801 27.3678 28.425 26.4817L28.4556 26.4394C28.7304 26.06 29.015 25.6678 29.2913 25.2804C29.5881 24.866 29.8897 24.4398 30.1484 24.0734C30.182 24.0259 30.2151 23.9788 30.2483 23.9323L30.5596 25.1495C30.1174 25.699 29.6494 26.2832 29.146 26.9127ZM23.3433 19.7498C22.4189 20.652 21.4897 21.5585 20.5635 22.4597L20.1443 20.8803C20.157 20.8629 20.1694 20.8456 20.182 20.828C20.4779 20.4177 20.7816 19.9933 21.0849 19.5661L21.5338 18.9337L21.9793 18.299L22.8668 17.0294C23.1051 16.6887 23.3441 16.3404 23.5751 16.0035L24.6219 14.473L25.4865 13.1877L25.6402 12.9584L23.3433 19.7498ZM27.0557 4.48547C27.0527 4.52057 27.0488 4.5558 27.0449 4.59028L27.0413 4.62385C27.0311 4.7107 27.018 4.80097 27.0011 4.90193C26.9858 4.99574 26.9682 5.08808 26.9493 5.17571C26.9327 5.2513 26.9109 5.3513 26.8863 5.45134C26.7945 5.81583 26.6739 6.17883 26.5277 6.53035C26.5087 6.5758 26.4897 6.62093 26.4697 6.66575C26.4537 6.70287 26.4372 6.73981 26.4203 6.77614C26.4196 6.77846 26.4187 6.7803 26.4173 6.78232C26.4127 6.79253 26.4081 6.80257 26.4031 6.81291C26.4028 6.81449 26.4019 6.81619 26.4012 6.81742C26.3976 6.82544 26.394 6.8335 26.3898 6.84169C26.3799 6.86317 26.3699 6.88451 26.3593 6.90585C26.3494 6.92653 26.3397 6.94681 26.3295 6.96706C26.3196 6.98743 26.3095 7.00769 26.299 7.0281C26.2855 7.05514 26.2717 7.08205 26.2577 7.10864C26.2571 7.11066 26.256 7.11267 26.255 7.11421C26.2445 7.13415 26.2345 7.15409 26.2236 7.17389C26.2212 7.17854 26.2191 7.18331 26.2161 7.18778C26.2086 7.20233 26.2007 7.21688 26.1925 7.23126C26.1925 7.23186 26.1922 7.23261 26.1914 7.23323C26.1895 7.23774 26.1872 7.24208 26.1842 7.24637C26.176 7.26232 26.1672 7.2784 26.1583 7.294C26.1573 7.29571 26.1564 7.29773 26.1551 7.29939C26.1453 7.3167 26.1354 7.33418 26.1256 7.35167C26.1256 7.35259 26.125 7.3529 26.1244 7.35382C26.1245 7.35412 26.1245 7.35412 26.1241 7.35443C26.1223 7.35816 26.1204 7.36187 26.1177 7.36556C26.1069 7.38506 26.0951 7.40482 26.0837 7.42446C26.0765 7.43729 26.0689 7.44995 26.0611 7.4628C26.0406 7.49741 26.0201 7.53208 25.9992 7.56577C25.7857 7.91265 25.5448 8.23634 25.283 8.52805C25.0053 8.83877 24.6967 9.12027 24.3653 9.36514C24.1949 9.49068 24.0152 9.6083 23.8324 9.71482C23.6426 9.82429 23.4482 9.92275 23.2558 10.0074C23.0519 10.0956 22.8465 10.172 22.6453 10.2342C22.4316 10.2996 22.2186 10.353 22.0127 10.3924C21.7955 10.4332 21.5789 10.463 21.3694 10.481C21.1561 10.4987 20.9396 10.5068 20.7264 10.5049C20.515 10.502 20.3009 10.4899 20.0912 10.4694C19.8946 10.4497 19.6913 10.4207 19.4704 10.3812C19.0821 10.31 18.6819 10.2078 18.2811 10.0766C18.2339 10.061 18.187 10.0455 18.1397 10.0294C18.0926 10.0132 18.0455 9.99681 17.9986 9.98011C17.9513 9.96324 17.9042 9.94623 17.8569 9.92875C17.8337 9.91994 17.8101 9.91131 17.7866 9.90232C17.763 9.89351 17.7393 9.8844 17.7157 9.87512C17.6747 9.85965 17.6334 9.84361 17.5924 9.82704C17.5649 9.81609 17.5374 9.80526 17.5095 9.79365C17.3888 9.7448 17.2684 9.69348 17.1471 9.63967C17.1409 9.63704 17.1349 9.63411 17.1288 9.63134C17.0923 9.61509 17.0556 9.59874 17.019 9.58188C16.9282 9.54077 16.8367 9.4976 16.7452 9.45309C16.7075 9.43516 16.6698 9.41675 16.6321 9.39805C16.5889 9.37675 16.5456 9.35523 16.5024 9.33328C16.3719 9.26746 16.2406 9.19837 16.1082 9.12646L16.0347 9.0861C15.975 9.05318 15.9131 9.01932 15.8538 8.98518L15.1507 8.58261C14.8498 8.41197 14.54 8.24222 14.2299 8.07869C13.926 7.91808 13.615 7.76331 13.3056 7.61892C12.9929 7.47222 12.6802 7.33835 12.3758 7.22165C12.2238 7.1632 12.0671 7.1065 11.9091 7.05286C11.7609 7.004 11.6032 6.95546 11.441 6.91C11.117 6.81926 10.8003 6.75064 10.5018 6.70611C10.1966 6.65836 9.87939 6.63285 9.55879 6.62974C9.40582 6.62864 9.24751 6.63285 9.08652 6.64332C8.93714 6.65384 8.78373 6.67023 8.61691 6.69328C8.58317 6.69805 8.54968 6.70318 8.51593 6.70857C8.50022 6.71121 8.48451 6.714 8.46914 6.71646C8.46817 6.71646 8.46741 6.71646 8.46679 6.71676C8.43927 6.72141 8.41211 6.72619 8.38447 6.731C8.38384 6.73131 8.38323 6.73131 8.3826 6.73131C8.34426 6.73841 8.30625 6.74551 8.26827 6.75327C8.22914 6.76098 8.19018 6.76905 8.15153 6.77737C8.11244 6.78587 8.0738 6.79454 8.03485 6.80397C8.00471 6.81107 7.97456 6.81803 7.94438 6.82574C7.94077 6.82636 7.93686 6.82745 7.93325 6.82868C7.92269 6.831 7.91205 6.83381 7.9015 6.83687C7.8979 6.83736 7.89429 6.83797 7.89068 6.83938C7.86086 6.84677 7.8313 6.8548 7.80146 6.86299C7.77195 6.87057 7.74274 6.87907 7.71337 6.88744C7.70927 6.88854 7.70552 6.88928 7.70156 6.89099C7.69168 6.89362 7.68179 6.89638 7.67205 6.89932C7.66216 6.90181 7.65241 6.90488 7.64253 6.90816C7.62588 6.91264 7.60941 6.91772 7.59275 6.92285C7.59115 6.92316 7.5891 6.92346 7.5871 6.92486C7.57343 6.92903 7.55896 6.93336 7.54516 6.93766C7.53119 6.94155 7.51703 6.94585 7.50291 6.95098C7.45576 6.96549 7.40884 6.98064 7.3617 6.99721C7.34615 7.00199 7.33075 7.00738 7.31552 7.01281C7.25222 7.03459 7.18895 7.05734 7.12565 7.0813C7.10868 7.08747 7.09154 7.09397 7.07444 7.10076C7.05133 7.10926 7.02809 7.11837 7.00472 7.12767C6.98995 7.13371 6.97534 7.13941 6.96042 7.14558C6.9306 7.1572 6.90059 7.16942 6.87071 7.18191C6.83212 7.19817 6.7933 7.21425 6.75496 7.23095C6.45453 7.36092 6.15094 7.50994 5.85265 7.67396C5.7236 7.7446 5.5833 7.82576 5.41088 7.92995L5.40727 7.93197C5.2945 8.00383 5.14718 8.09941 5.00645 8.20295C4.49708 8.56608 4.02842 9.0286 3.61192 9.57876C3.40962 9.84978 3.22789 10.1326 3.07145 10.4182C2.90733 10.7145 2.76083 11.0229 2.63656 11.3341C2.51137 11.6468 2.39989 11.9735 2.30515 12.3061C2.26041 12.4666 2.21736 12.6354 2.17778 12.8075C2.13918 12.9729 2.10334 13.1448 2.07145 13.3187C2.00739 13.6772 1.9598 14.0264 1.92966 14.3567C1.91096 14.5677 1.89948 14.7298 1.8932 14.8817C1.88959 14.967 1.88598 15.0556 1.88376 15.1445L1.88207 15.2753L1.88282 15.4191C1.88314 15.5171 1.8026 15.5974 1.70283 15.5977C1.61535 15.599 1.54121 15.5378 1.52487 15.454L1.51046 15.3793L1.4748 15.1736C1.45864 15.072 1.4459 14.9826 1.43615 14.901C1.41277 14.7087 1.39581 14.5294 1.38419 14.3527C1.35966 13.9771 1.35418 13.6053 1.36816 13.2471C1.37476 13.0613 1.38619 12.8749 1.40222 12.6929C1.41874 12.5125 1.44056 12.3258 1.46758 12.1384C1.52617 11.7371 1.59998 11.3765 1.69294 11.0345C1.74085 10.8543 1.79628 10.6709 1.85753 10.4892C1.91848 10.3061 1.98571 10.1258 2.05779 9.9529C2.20324 9.60229 2.37835 9.25353 2.57721 8.91687C2.78437 8.57056 3.01321 8.24795 3.2587 7.95607C3.38807 7.79872 3.52568 7.65127 3.65556 7.51551C3.77963 7.39076 3.92825 7.24484 4.08985 7.10522C4.24644 6.96675 4.41321 6.83767 4.55487 6.73069L4.60469 6.69359C4.66591 6.64814 4.72655 6.60283 4.78656 6.55941C4.81247 6.541 4.83807 6.52247 4.86398 6.50376C4.91567 6.46682 4.96954 6.428 5.02385 6.39135C5.11593 6.32783 5.20608 6.26709 5.2945 6.20973C5.32401 6.19027 5.35322 6.17126 5.38243 6.15298C5.43457 6.11928 5.48626 6.08682 5.53745 6.05544C5.55646 6.04387 5.57548 6.03226 5.59417 6.02068C5.6378 5.99408 5.68104 5.96828 5.72391 5.94352C5.75186 5.92714 5.77964 5.91092 5.80711 5.89515C5.83493 5.87937 5.86259 5.86391 5.88975 5.84878C5.90813 5.8384 5.92647 5.82837 5.94455 5.81877C5.9697 5.80457 5.99499 5.79094 6.01993 5.77767C6.16992 5.6959 6.33909 5.61132 6.55079 5.51164C6.7314 5.42829 6.91818 5.34915 7.10538 5.2765C7.47669 5.1329 7.86994 5.01464 8.27343 4.92481C8.47101 4.88199 8.67581 4.84549 8.88141 4.81674C9.08857 4.78909 9.29665 4.76915 9.49914 4.75675C9.9089 4.73449 10.3248 4.74304 10.7355 4.78199C11.1189 4.81796 11.5241 4.88383 11.9379 4.97708C12.133 5.02221 12.329 5.07261 12.5194 5.12717C12.7134 5.18312 12.9045 5.24294 13.086 5.30384C13.4426 5.42584 13.7991 5.56277 14.1757 5.72311C14.506 5.86456 14.8456 6.02192 15.2147 6.20385C15.5824 6.38427 15.9414 6.57549 16.2127 6.72189C16.3674 6.80537 16.5332 6.89577 16.7008 6.99069L16.7922 7.04174L16.9294 7.11837C16.9799 7.14668 17.0308 7.1742 17.0812 7.20124C17.105 7.21395 17.1288 7.22643 17.1539 7.24037C17.8055 7.58462 18.3991 7.8414 18.9693 8.02518C19.1116 8.07062 19.261 8.11483 19.4275 8.16001C19.5949 8.20484 19.7602 8.24038 19.8853 8.2668C20.0349 8.29743 20.1883 8.32354 20.3403 8.34397C20.493 8.36513 20.645 8.38029 20.7915 8.38848C20.9447 8.39835 21.0949 8.40159 21.2376 8.39835C21.3947 8.39558 21.5382 8.38677 21.6764 8.37131C21.8302 8.35522 21.9719 8.33314 22.1082 8.30483C22.2605 8.27455 22.3995 8.23976 22.5326 8.19861C23.0881 8.03061 23.6276 7.74973 24.1362 7.36354C24.19 7.32293 24.2437 7.28103 24.2971 7.23743C24.3053 7.23095 24.3131 7.22442 24.321 7.21793C24.3457 7.19817 24.3702 7.17775 24.3951 7.15671C24.4076 7.14651 24.4199 7.13586 24.4325 7.12521C24.4449 7.11482 24.457 7.10418 24.4694 7.09317C24.4803 7.08423 24.4911 7.07495 24.5019 7.06522C24.5183 7.05097 24.5344 7.03691 24.5508 7.02193C24.5668 7.00768 24.583 6.99318 24.5993 6.97849C24.6806 6.90488 24.7615 6.82837 24.8418 6.74831C24.852 6.73841 24.8621 6.72838 24.8723 6.718C24.8933 6.69744 24.9139 6.6764 24.9346 6.65555C24.9634 6.62601 24.9922 6.59653 25.0208 6.5662C25.0466 6.53898 25.0722 6.51195 25.0978 6.48413C25.1063 6.47514 25.1141 6.46651 25.122 6.45771C25.1421 6.4365 25.1614 6.41515 25.1807 6.39355C25.201 6.37129 25.2211 6.34903 25.2407 6.32646C25.2613 6.30354 25.2816 6.28037 25.302 6.25688C25.3273 6.22765 25.3524 6.19846 25.3777 6.16862C25.4022 6.14 25.4269 6.11065 25.451 6.08094C25.4796 6.0468 25.5078 6.01232 25.536 5.9774C25.746 5.71675 25.9525 5.43649 26.1489 5.14478C26.1986 5.07199 26.2472 5.00039 26.296 4.9245L26.4363 4.70361C26.4691 4.65101 26.5015 4.59769 26.534 4.54436L26.6752 4.30769C26.6835 4.29349 26.692 4.27912 26.6992 4.26798L26.7303 4.22206C26.7863 4.13859 26.9007 4.11616 26.9855 4.17119C27.0407 4.20708 27.0717 4.26965 27.0675 4.33477L27.0557 4.48547ZM25.3914 9.36576L24.4531 10.5938L20.7071 15.5066L19.2305 17.4426L18.9437 16.3639L17.2853 10.122C17.285 10.1208 17.2847 10.1194 17.2844 10.118C17.2808 10.1055 17.2772 10.0929 17.2733 10.0807C17.5725 10.2056 17.8694 10.3157 18.1673 10.4132C18.5839 10.5493 19.0001 10.6562 19.4052 10.73C19.6362 10.7717 19.8486 10.8016 20.0551 10.8226C20.2753 10.8438 20.4996 10.8566 20.7221 10.8597C20.9472 10.8617 21.1754 10.8532 21.4002 10.8345C21.6224 10.8155 21.8511 10.7839 22.0812 10.7406C22.3001 10.6987 22.526 10.6424 22.7531 10.5729C22.9671 10.5065 23.1855 10.4254 23.4021 10.3316C23.6072 10.2414 23.8134 10.1372 24.0149 10.0209C24.21 9.90745 24.4003 9.78222 24.5815 9.64913C24.9326 9.38924 25.2597 9.09136 25.5537 8.76271C25.7867 8.50285 26.0043 8.21873 26.2013 7.91681C26.2278 8.00989 26.2541 8.10664 26.28 8.20681L25.3914 9.36576ZM55.5526 2.83512C55.5507 2.71484 55.5369 2.60385 55.5113 2.49671C55.4802 2.36656 55.4326 2.24567 55.3692 2.13729C55.296 2.01443 55.202 1.90484 55.0975 1.82058C54.9935 1.7363 54.8732 1.66707 54.7494 1.62006C54.5491 1.54354 54.3384 1.51002 54.0857 1.51296C53.908 1.5162 53.7277 1.53828 53.5171 1.58341C53.2087 1.65161 52.8972 1.75642 52.5361 1.91347C52.2583 2.0345 51.9704 2.17998 51.6567 2.35776C51.4179 2.49394 51.1757 2.64267 50.9269 2.80541H44.241C44.2979 2.72255 44.3543 2.64188 44.4097 2.5638C44.4743 2.47291 44.5429 2.38063 44.615 2.28773C44.6304 2.26701 44.6464 2.24738 44.6615 2.22866L44.7089 2.17257C44.7149 2.16543 44.7201 2.15943 44.7251 2.1543C44.7834 2.14133 44.8394 2.11907 44.8902 2.08848C45.1443 1.93481 45.2245 1.60646 45.0689 1.35635C44.9462 1.15972 44.746 1.03572 44.5044 1.00714C44.1 0.959377 43.4612 1.10806 41.3525 2.80541H40.8082C40.7154 2.80541 40.6399 2.87934 40.6399 2.9707V3.39133C39.7092 4.17119 38.5439 5.19938 37.0745 6.55091C36.3309 7.23494 35.5495 7.96458 34.7354 8.73256C34.7033 8.56408 34.6778 8.39063 34.6593 8.21487C34.6299 7.93894 34.6148 7.63132 34.6148 7.30001C34.6148 6.68166 34.7819 6.25193 35.1255 5.98651C35.4796 5.71382 36.1044 5.55397 36.9824 5.51084C37.0715 5.50638 37.1419 5.43385 37.1419 5.34573V2.9707C37.1419 2.87934 37.0665 2.80541 36.9739 2.80541H32.3485C32.4815 2.64635 32.6048 2.50814 32.7224 2.3848C32.8066 2.29732 32.8866 2.22095 32.961 2.1568C32.9963 2.12617 33.0331 2.09698 33.0672 2.07253C33.0868 2.05833 33.1071 2.04642 33.1223 2.03743C33.1314 2.03204 33.1389 2.02709 33.1452 2.02323L33.2415 1.95878C33.4215 1.83806 33.509 1.61711 33.4598 1.40858C33.394 1.1277 33.1079 0.951936 32.8217 1.0167C32.6863 1.04763 32.5894 1.09167 32.5077 1.13129C32.4369 1.16652 32.3657 1.20657 32.2845 1.25802C32.1407 1.34907 32.0191 1.44228 31.9187 1.52159C31.6786 1.71189 31.4685 1.90606 31.2948 2.071C31.122 2.23515 30.9411 2.41648 30.7254 2.64158C30.672 2.69767 30.6202 2.75227 30.5701 2.80541H23.0785C22.9858 2.80541 22.9108 2.87934 22.9108 2.9707V5.34573C22.9108 5.43709 22.9858 5.51084 23.0785 5.51084H23.4394C23.9153 5.51084 24.3288 5.57811 24.6687 5.71027C24.8267 5.77162 24.972 5.848 25.1035 5.93844C24.7172 6.39386 24.3187 6.77815 23.9166 7.08252C23.4416 7.44272 22.9406 7.7038 22.4258 7.8598C22.3037 7.89749 22.1763 7.92904 22.035 7.95748C21.9095 7.9836 21.7798 8.00353 21.6368 8.01869C21.5093 8.03294 21.3763 8.04095 21.2304 8.04359C21.0973 8.04683 20.9577 8.04359 20.8135 8.03429C20.676 8.02644 20.5337 8.01251 20.3901 7.99227C20.2451 7.97295 20.1003 7.94836 19.9597 7.91944C19.8394 7.89412 19.6808 7.86011 19.5228 7.81773C19.3623 7.77414 19.2177 7.73163 19.0815 7.68803C18.5318 7.51056 17.9569 7.26201 17.3263 6.92872C17.3022 6.9154 17.2778 6.90261 17.2536 6.88959C17.2054 6.86378 17.1575 6.83797 17.1087 6.81027L16.9205 6.7052C17.0334 6.48474 17.1959 6.28996 17.4096 6.11806C17.6014 5.96346 17.8209 5.8384 18.0622 5.7455C18.4181 5.60729 18.8402 5.52846 19.3168 5.51084C19.4066 5.50773 19.4776 5.43569 19.4787 5.34744L19.5013 2.97237C19.5019 2.92803 19.4842 2.88583 19.4528 2.85458C19.4212 2.82321 19.3784 2.80541 19.3334 2.80541H4.22021C4.1753 2.80541 4.13242 2.82321 4.10098 2.85458C4.06942 2.88583 4.05184 2.92803 4.05245 2.97237L4.07508 5.34744C4.07601 5.43649 4.1484 5.50913 4.23923 5.51084C4.68622 5.52136 5.10053 5.57549 5.48108 5.67254C5.26872 5.79913 5.04946 5.94028 4.81795 6.09965C4.76097 6.13878 4.70536 6.17883 4.65117 6.21743C4.62633 6.23509 4.60109 6.25315 4.57419 6.27248C4.51124 6.3184 4.44967 6.36415 4.38748 6.41068L4.33627 6.44841C4.18847 6.56032 4.01474 6.6945 3.85016 6.83967C3.68084 6.98639 3.52568 7.13879 3.39658 7.2685L3.3944 7.27095C3.25932 7.41227 3.11543 7.56608 2.97942 7.73163C2.72342 8.03649 2.48359 8.37455 2.26623 8.73751C2.0581 9.08903 1.87592 9.45278 1.7242 9.81841C1.64914 9.99908 1.57861 10.1874 1.51517 10.3782C1.45186 10.5666 1.39408 10.7572 1.34461 10.9436C1.24783 11.2984 1.17121 11.6726 1.11056 12.0883C1.08279 12.2822 1.06017 12.4751 1.04303 12.6615C1.02638 12.85 1.01462 13.0429 1.00804 13.2341C0.993253 13.6039 0.998909 13.9877 1.02433 14.3751C1.03662 14.5588 1.05389 14.7446 1.0782 14.9429C1.08826 15.0287 1.10179 15.122 1.11889 15.2298L1.14275 15.3725L1.1709 15.5203C1.21943 15.7712 1.44261 15.9525 1.70252 15.9525H1.70456C2.00268 15.9515 2.24425 15.7114 2.24331 15.4163L2.24265 15.2768L2.24425 15.151C2.2463 15.0667 2.2499 14.98 2.25351 14.8961C2.25929 14.75 2.27047 14.5933 2.28886 14.3881C2.31806 14.0678 2.36423 13.7288 2.42656 13.381C2.45706 13.2133 2.49142 13.0471 2.52944 12.8865C2.56778 12.7191 2.60909 12.5555 2.65259 12.4017C2.74368 12.0809 2.85129 11.7654 2.97189 11.4641C3.09077 11.1664 3.23073 10.8716 3.38874 10.587C3.53731 10.3152 3.71023 10.0464 3.90167 9.78962C4.29558 9.2693 4.73834 8.83229 5.2202 8.48865C5.35322 8.39063 5.49347 8.29958 5.60107 8.23126C5.76816 8.1303 5.90386 8.05164 6.02811 7.9839C6.31648 7.82545 6.61018 7.68124 6.90028 7.55587C7.17355 7.43699 7.44855 7.33602 7.72418 7.25395C8.1839 7.93845 8.56589 8.86678 8.86302 10.028L12.5339 23.8129L13.0044 25.5798L13.1217 26.0193C13.2483 25.8515 13.375 25.684 13.5016 25.5171C14.3262 24.4276 15.174 23.3252 15.994 22.259C16.4129 21.7146 16.8318 21.17 17.2497 20.6246L19.1237 18.1736L19.3469 17.8807L20.9954 15.7194L24.7416 10.8071L25.6793 9.57942L26.3888 8.65373L26.6202 8.35181C26.8027 8.11286 26.9899 7.86996 27.1708 7.63549C27.3015 7.46621 27.4323 7.29646 27.5621 7.12718L28.9789 5.2907L29.9717 4.01585L30.1946 3.75583C30.2984 3.63711 30.3786 3.54606 30.4551 3.46104C30.6144 3.28187 30.789 3.09357 30.9883 2.88473C31.0142 2.8577 31.0397 2.83123 31.0644 2.80541C31.2429 2.62054 31.3973 2.46674 31.5451 2.32652C31.7133 2.16714 31.9159 1.97977 32.1449 1.798C32.2376 1.72443 32.3497 1.63845 32.4791 1.55638C32.5508 1.51155 32.6094 1.47816 32.6684 1.44894C32.7336 1.41739 32.8053 1.38478 32.9034 1.36239C32.9951 1.34166 33.0874 1.39806 33.1088 1.48868C33.1245 1.55577 33.0964 1.62671 33.0386 1.66519L32.9442 1.72842L32.9348 1.73416C32.9167 1.74481 32.8866 1.7629 32.8548 1.78577C32.8122 1.81641 32.7667 1.85255 32.7231 1.89042C32.6407 1.9614 32.5526 2.04532 32.4606 2.14133C32.3062 2.30254 32.1446 2.48715 31.9652 2.70621C31.9389 2.73912 31.9118 2.77202 31.885 2.80541C31.6262 3.12807 31.3569 3.48576 31.046 3.92125C30.966 4.03329 30.8942 4.13548 30.8258 4.2343L30.7183 4.39056L30.0009 5.54008L29.8091 5.84971L29.3981 6.50516C29.1349 6.92486 28.8525 7.37345 28.5715 7.81217C28.4918 7.93675 28.4126 8.0612 28.3332 8.18582C28.1386 8.49094 27.9373 8.80649 27.7372 9.11457L26.8947 10.412L26.0867 11.6391L26.0433 11.7045L25.6166 12.3494L25.1859 12.9924L24.3219 14.2759L23.4485 15.5538L23.2762 15.8052C23.0458 16.1413 22.8071 16.4888 22.57 16.8284L21.6827 18.0977L21.2376 18.7311L20.7897 19.363C20.5337 19.7233 20.277 20.082 20.0249 20.432C19.9791 20.4958 19.9332 20.5597 19.8877 20.6229C19.6031 21.0191 19.3056 21.4294 18.9788 21.8773C17.8999 23.3555 16.6122 25.0994 15.2385 26.8237C14.7755 27.4058 14.2954 27.9965 13.8051 28.5859C13.6277 28.7991 13.4488 29.0125 13.2692 29.225C12.872 29.6937 12.4679 30.1616 12.0683 30.6159L12.3293 30.8604C12.872 30.351 13.4272 29.8265 13.9926 29.2897C16.1164 27.2733 18.3816 25.0816 20.6687 22.8562C21.4752 22.0717 22.2844 21.2827 23.0911 20.4955C23.5137 20.0829 23.9359 19.6706 24.3568 19.2601L24.3836 19.2342C25.4999 18.1446 26.6015 17.0691 27.6811 16.0181C27.8263 15.8765 27.9711 15.7355 28.1157 15.5953C30.4974 13.2776 32.7631 11.0879 34.8245 9.1396C35.6954 8.3175 36.5296 7.53777 37.3206 6.80997C38.6676 5.57066 39.7568 4.6065 40.6399 3.85831C41.1284 3.4448 41.554 3.09699 41.9258 2.80541C43.5638 1.52036 44.1548 1.32356 44.4615 1.35928C44.5928 1.37519 44.6968 1.43811 44.7614 1.5417C44.8132 1.62518 44.7863 1.7349 44.7014 1.78608C44.6781 1.80032 44.6522 1.80865 44.6247 1.81128L44.568 1.81641L44.4821 1.88814L44.4727 1.89927C44.4683 1.90405 44.4645 1.90839 44.4603 1.91316C44.4519 1.92228 44.4432 1.93218 44.432 1.94515L44.3805 2.00654C44.3629 2.02832 44.3437 2.05167 44.3267 2.07424C44.2534 2.16933 44.1817 2.26547 44.1141 2.36082C44.0141 2.50197 43.9112 2.65069 43.8064 2.80541C43.7716 2.85708 43.7365 2.90931 43.7015 2.96185L43.2977 3.57419L42.8991 4.1913C42.6005 4.65413 42.2998 5.12575 42.0054 5.58784C41.9511 5.67315 41.8969 5.75804 41.8432 5.84261C41.6668 6.11977 41.4903 6.3971 41.3133 6.67426L39.726 9.16003C39.2897 9.83818 38.7139 10.7323 38.125 11.6386C37.4462 12.6826 36.7783 13.7007 36.118 14.698C34.5669 17.0413 33.0577 19.2707 31.5474 21.4491C31.2655 21.857 30.9795 22.2658 30.7025 22.6617C30.5209 22.9219 30.3324 23.191 30.1316 23.4758C30.0411 23.6039 29.9484 23.7352 29.8526 23.8704C29.5938 24.2368 29.2932 24.6622 28.9964 25.0762C28.7207 25.463 28.4369 25.8545 28.1622 26.2333L28.1317 26.2753C27.4881 27.1594 26.9122 27.9373 26.3711 28.6535C25.7818 29.4361 25.1739 30.2258 24.5638 31.0007C23.9048 31.8378 23.2953 32.593 22.6996 33.3091C22.2255 33.8808 21.7752 34.4107 21.3367 34.9137C21.1429 35.1359 20.9515 35.3526 20.7614 35.5655C20.1165 36.2885 19.5141 36.9317 18.9258 37.5236C18.8542 37.5958 18.7828 37.6675 18.7115 37.7385C18.4256 38.0188 18.191 38.2428 17.972 38.4434L18.1903 38.7237C18.5688 38.4917 18.9678 38.2146 19.4096 37.8766C19.5571 37.7632 19.7061 37.6459 19.8572 37.5236C20.1322 37.301 20.4146 37.062 20.7107 36.8014C20.7477 36.7692 20.7846 36.7363 20.822 36.7031C21.2491 36.3237 21.689 35.913 22.1668 35.4475C22.9844 34.65 23.8192 33.7824 24.7196 32.7941C25.1256 32.3478 25.5376 31.885 25.9438 31.4181C26.122 31.2136 26.3131 30.9919 26.5451 30.7208L26.6392 30.6115C26.6595 30.5881 26.6795 30.5649 26.6962 30.5445L26.7676 30.4587L27.1289 30.0132L29.4292 27.1321C29.8677 26.5836 30.2799 26.0697 30.6707 25.5829C31.0441 25.1181 31.3984 24.6778 31.7389 24.2558C33.4405 22.1476 34.9674 20.2778 36.4072 18.5408C36.5652 18.3497 36.7229 18.1597 36.8798 17.9709C37.5275 17.1917 38.163 16.4333 38.7744 15.7094C39.6318 14.6939 40.4169 13.7758 41.174 12.903C42.1978 11.7223 43.105 10.6961 43.9483 9.76552C44.7149 8.91931 45.4293 8.15226 46.1311 7.41998C47.0684 6.45043 47.9481 5.61378 48.8201 4.86284C49.3348 4.42131 49.8099 4.03995 50.2734 3.6971C50.7405 3.35128 51.176 3.05773 51.5975 2.80541C51.6778 2.75704 51.7577 2.71019 51.8371 2.66506C52.1395 2.49347 52.4158 2.3539 52.6819 2.23778C53.0208 2.09032 53.3112 1.99261 53.5947 1.92985C53.7808 1.89042 53.9388 1.87035 54.0911 1.86772C54.2961 1.8646 54.4636 1.8912 54.6192 1.95059C54.7074 1.98458 54.7937 2.03419 54.8686 2.0948C54.9407 2.15294 55.0064 2.22976 55.0574 2.31569C55.1026 2.39316 55.1375 2.48129 55.1604 2.57804C55.1804 2.6606 55.1904 2.74653 55.1922 2.841V2.84131C55.1948 2.99713 55.1751 3.1554 55.1303 3.34063C55.1125 3.4142 55.0906 3.49023 55.0627 3.57388C55.0377 3.64807 55.0097 3.72384 54.9784 3.79956C54.8686 4.06795 54.729 4.33521 54.5393 4.64006C54.2398 5.11774 53.8652 5.60282 53.3947 6.12283C53.3286 6.19615 53.2141 6.20263 53.1402 6.13738C53.104 6.10614 53.0828 6.06257 53.0802 6.01512C53.0772 5.96963 53.092 5.92608 53.1215 5.89129L53.1263 5.88603C53.5829 5.38162 53.9443 4.91323 54.2322 4.45426C54.4088 4.17045 54.5435 3.91287 54.6439 3.66788C54.7031 3.52288 54.7489 3.3845 54.7799 3.25668C54.8169 3.10611 54.8342 2.96869 54.8315 2.85012C54.8306 2.7116 54.8009 2.58838 54.7455 2.49394L54.7437 2.49132C54.6848 2.39408 54.6032 2.32743 54.4859 2.28064C54.3806 2.23966 54.2464 2.21985 54.0987 2.22266C53.9732 2.22419 53.8297 2.24259 53.6727 2.27642C53.4161 2.33256 53.1399 2.42607 52.8278 2.56227C52.6407 2.64421 52.448 2.73803 52.2434 2.84748C52.1697 2.88706 52.0943 2.92833 52.0169 2.97237C51.5342 3.24769 51.0348 3.57774 50.4904 3.98062C50.0357 4.31681 49.5671 4.69247 49.0571 5.1301C48.1945 5.87319 47.3227 6.70226 46.3913 7.66516C45.5446 8.54878 44.6814 9.48122 43.7311 10.5405C43.0273 11.3248 42.2757 12.1786 41.4482 13.1332C40.702 13.9933 39.9183 14.91 39.0518 15.9364C38.3729 16.7397 37.678 17.5699 36.9814 18.4094C36.8831 18.5278 36.7848 18.6465 36.6864 18.7652C35.2533 20.4942 33.7273 22.3626 32.0213 24.4765C31.6177 24.9768 31.2033 25.4916 30.7815 26.0171C30.4298 26.4556 30.073 26.9014 29.7127 27.352L27.4116 30.2332L27.1206 30.5935L27.0479 30.6826L26.8211 30.9497C26.584 31.2263 26.3922 31.4486 26.2176 31.649C25.8132 32.1139 25.3997 32.5787 24.9883 33.0308C24.0827 34.0247 23.2428 34.8975 22.4204 35.6995C21.9427 36.1653 21.4988 36.5794 21.0636 36.9662C20.555 37.4179 20.0864 37.8075 19.6314 38.1565C19.0548 38.5972 18.5602 38.9304 18.0749 39.2052C17.7705 39.377 17.4892 39.5121 17.2162 39.6181C16.8517 39.7576 16.5574 39.8294 16.2624 39.8514C16.2143 39.8548 16.1674 39.8401 16.1311 39.8092C16.0944 39.7781 16.0724 39.7353 16.0688 39.6882C16.066 39.6528 16.0741 39.6175 16.0917 39.5869L16.1152 39.5455V39.5089C16.1209 39.47 16.139 39.4343 16.1664 39.4073L16.1767 39.3969C16.3278 39.2476 16.4844 39.0751 16.6554 38.8707C16.8016 38.6991 16.9436 38.5178 17.0812 38.3426L17.1107 38.3046C17.2986 38.0617 17.4925 37.8036 17.6976 37.5236C17.7898 37.3978 17.8842 37.2678 17.9811 37.1327C18.2395 36.7765 18.4964 36.4097 18.7444 36.0549L18.828 35.9356C19.1142 35.5272 19.3983 35.1158 19.6651 34.729L22.9904 29.8781C23.0012 29.8623 23.012 29.8464 23.0232 29.8308C23.6524 28.9149 24.1744 28.1591 24.6635 27.4554C25.2597 26.5955 25.8506 25.7523 26.3502 25.0409L27.2002 23.837L28.0537 22.6356L29.425 20.7132L29.7667 20.234C31.9588 17.1716 33.8305 14.6004 35.5564 12.283C35.9585 11.7422 36.3532 11.2159 36.7419 10.6997C37.3167 9.93633 37.9205 9.14517 38.5349 8.34783L39.445 7.17806C39.5771 7.00804 39.718 6.82868 39.9022 6.59713L40.3637 6.01648C40.4991 5.84598 40.6329 5.67903 40.7717 5.50712C40.936 5.30384 41.107 5.09347 41.2955 4.86249C41.618 4.46491 41.9547 4.06453 42.245 3.72029C42.3978 3.53847 42.557 3.35514 42.711 3.17784L42.7298 3.15651C42.795 3.08166 42.8601 3.00673 42.9261 2.93267L43.0384 2.80541L44.064 1.64635L42.6816 2.67418C42.6238 2.71699 42.5655 2.7609 42.5069 2.80541C42.3751 2.90545 42.241 3.0087 42.1067 3.11474C41.6717 3.45732 41.1845 3.85972 40.6399 4.32531C39.762 5.07677 38.7352 5.99379 37.5399 7.09397C36.71 7.85778 35.8336 8.67739 34.9183 9.54323C32.8545 11.4958 30.5924 13.6833 28.2177 15.9946C27.9523 16.2523 27.6863 16.5117 27.4185 16.7729C26.5032 17.6646 25.5731 18.5731 24.6323 19.491L24.6243 19.4991C24.0306 20.0784 23.4347 20.66 22.8387 21.2412C22.1501 21.9132 21.4608 22.5849 20.7743 23.2527C18.4823 25.4823 16.2189 27.6706 14.0974 29.6836C12.6268 31.0788 11.2244 32.3894 9.92823 33.5707C8.07491 35.2597 6.5186 36.6088 5.30345 37.5802L5.30077 37.5824L5.41715 37.7175L5.53384 37.8529L5.53621 37.8514C6.75701 36.8753 8.3168 35.523 10.1731 33.831C11.4283 32.6868 12.7825 31.4221 14.202 30.0769L14.4858 31.144L15.9463 37.4001C15.9656 37.4726 16.0325 37.5236 16.1085 37.5236H17.2519C17.1044 37.7226 16.9629 37.9101 16.8245 38.0888L16.7957 38.1259C16.6604 38.2984 16.5205 38.4768 16.3782 38.6442C16.2133 38.8407 16.0639 39.0052 15.9213 39.1465L15.9108 39.1565C15.8322 39.2346 15.7798 39.3355 15.7608 39.4442C15.7198 39.5282 15.702 39.6208 15.7093 39.7149C15.7201 39.8568 15.7867 39.9859 15.8963 40.0785C15.9954 40.1621 16.1186 40.2069 16.2478 40.2069C16.2618 40.2069 16.2756 40.2063 16.2898 40.2052C16.6218 40.1805 16.9478 40.1014 17.348 39.9488C17.6379 39.8358 17.9343 39.6934 18.2542 39.513C18.7547 39.2296 19.2627 38.8879 19.8525 38.4366C20.3147 38.0822 20.79 37.6872 21.3051 37.2298C21.7443 36.8391 22.1924 36.4211 22.674 35.9516C23.5016 35.1447 24.3463 34.2665 25.2567 33.2674C25.6697 32.8137 26.0852 32.3469 26.4914 31.8801C26.6667 31.6784 26.8591 31.4555 27.0967 31.1783L27.3274 30.9066L27.6945 30.4533L29.9962 27.5711C30.2974 27.1939 30.5971 26.8204 30.8925 26.4512L30.9151 26.5395L31.2863 27.992L31.5233 28.9152L33.4945 37.3986C33.5132 37.472 33.5804 37.5236 33.6574 37.5236H37.4468C37.5179 37.5236 37.5812 37.4794 37.6051 37.4136L39.7031 30.8503C39.7194 30.8052 39.7152 30.7549 39.6908 30.7134C39.2071 29.8739 38.375 29.3001 37.4081 29.1381L33.6202 28.5055L37.4081 27.8723C38.7686 27.645 39.8377 26.5925 40.0687 25.2535L40.7117 21.5252L41.3549 25.2526C41.3594 25.2804 41.3647 25.3074 41.3698 25.335C41.3843 25.4081 41.4466 25.4627 41.5223 25.4684C41.5974 25.474 41.6674 25.4294 41.693 25.3591L44.9652 16.3308L45.5428 14.7358L46.7855 11.3075C47.4373 9.52995 48.2112 8.15195 49.086 7.21162C49.9503 6.28194 50.9845 5.70905 52.1604 5.5087C52.2412 5.49476 52.2998 5.42615 52.2998 5.34573V3.22236C52.5397 3.08986 52.7609 2.97933 52.974 2.88644C53.2636 2.75998 53.5181 2.67387 53.7507 2.62286C53.8839 2.59412 54.0024 2.57882 54.105 2.57742C54.2036 2.5751 54.2941 2.58732 54.3522 2.61002C54.4047 2.63105 54.4201 2.64977 54.4337 2.67185C54.4433 2.68873 54.4705 2.74622 54.4711 2.85489C54.4731 2.94551 54.459 3.05261 54.4291 3.17412C54.4023 3.28511 54.3619 3.40675 54.3095 3.53506C54.2168 3.76187 54.091 4.00192 53.925 4.26829C53.652 4.7039 53.3079 5.1502 52.8733 5.63236L52.8105 5.67254V5.70905C52.7448 5.80488 52.7131 5.91833 52.72 6.03581C52.7285 6.17774 52.7924 6.30806 52.9005 6.40266C53.123 6.59744 53.4653 6.57812 53.6638 6.35907C54.1487 5.82328 54.5353 5.32194 54.8465 4.82617C55.0472 4.50356 55.1954 4.21926 55.3128 3.9325C55.3469 3.84964 55.3779 3.76603 55.4051 3.68457C55.4362 3.5915 55.4612 3.50557 55.4808 3.4227C55.5297 3.22158 55.5531 3.04472 55.5531 2.86988C55.5531 2.85831 55.5531 2.8467 55.5526 2.83512Z" fill="#60676B"/>
</svg>
